<?xml version="1.0" encoding="UTF-8"?>
<svg id="Layer_2" data-name="Layer 2" xmlns="http://www.w3.org/2000/svg" viewBox="0 0 1563.76 207.17">
  <defs>
    <style>
      .cls-1 {
        fill: #fff;
      }
    </style>
  </defs>
  <g id="Layer_1-2" data-name="Layer 1">
    <g>
      <path class="cls-1" d="m0,143.38v-2.14c0-.92.77-1.66,1.71-1.66h30.95c.95,0,1.71.74,1.71,1.66v3.9c0,25.46,10.55,32.19,35.89,32.19s33.47-6.73,33.47-24.87c0-20.78-10.25-24.29-45.23-37.16C21.11,101.54.6,89.54.6,54.43S21.11,0,68.15,0h2.41c46.74,0,67.85,20.48,67.85,62.33v1.85c0,.92-.77,1.66-1.71,1.66h-30.65c-.95,0-1.71-.74-1.71-1.66v-3.9c0-23.12-10.25-30.43-35.28-30.43s-33.17,7.02-33.17,23.12c0,19.31,13.57,23.12,45.84,34.24,38.6,13.75,57.6,25.16,57.6,62.91s-19,57.06-67.25,57.06h-4.22C19.9,207.17,0,187.27,0,143.38Z"/>
      <path class="cls-1" d="m228.18,35.89h-52.06c-.95,0-1.71-.77-1.71-1.71V3.83c0-.95.77-1.71,1.71-1.71h143.73c.95,0,1.71.77,1.71,1.71v30.35c0,.95-.77,1.71-1.71,1.71h-52.06c-.95,0-1.71.77-1.71,1.71v167.86c0,.95-.77,1.71-1.71,1.71h-32.76c-.95,0-1.71-.77-1.71-1.71V37.6c0-.95-.77-1.71-1.71-1.71Z"/>
      <path class="cls-1" d="m448.85,160.73h-65.17c-.78,0-1.47.53-1.66,1.29l-11.11,43.85c-.19.76-.88,1.29-1.66,1.29h-31.43c-1.12,0-1.94-1.06-1.66-2.14L388.95,1.28c.2-.76.88-1.28,1.66-1.28h53.74c.78,0,1.47.53,1.66,1.29l52.49,203.74c.28,1.09-.54,2.14-1.66,2.14h-33.84c-.79,0-1.48-.54-1.66-1.3l-10.82-43.83c-.19-.77-.88-1.3-1.66-1.3Zm-33.95-134.99l-24.21,101.51c-.26,1.08.56,2.11,1.67,2.11h47.84c1.1,0,1.92-1.03,1.67-2.1l-23.63-101.51c-.18-.78-.87-1.33-1.67-1.33h0c-.79,0-1.48.54-1.67,1.32Z"/>
      <path class="cls-1" d="m662.72,137.24c0,52.96-24.12,69.93-64.53,69.93h-3.92c-44.33,0-66.34-24.58-66.34-70.52v-65.55c0-47.11,23.52-71.11,67.25-71.11h2.41c42.52,0,65.14,23.99,65.14,70.81v5.94c0,.92-.77,1.66-1.71,1.66h-30.65c-.95,0-1.71-.74-1.71-1.66v-8.87c0-26.63-10.86-37.16-32.27-37.16s-32.27,10.53-32.27,36.87v71.11c0,26.04,10.55,37.75,32.27,37.75s32.27-11.41,32.27-37.45v-7.7c0-.92.77-1.66,1.71-1.66h30.65c.95,0,1.71.74,1.71,1.66v5.95Z"/>
      <path class="cls-1" d="m933.71,173.09h92.77c.95,0,1.71.77,1.71,1.71v30.65c0,.95-.77,1.71-1.71,1.71h-128.96c-.95,0-1.71-.77-1.71-1.71V3.83c0-.95.77-1.71,1.71-1.71h32.76c.95,0,1.71.77,1.71,1.71v167.56c0,.95.77,1.71,1.71,1.71Z"/>
      <path class="cls-1" d="m1072.43,2.11h129.26c.95,0,1.71.77,1.71,1.71v30.35c0,.95-.77,1.71-1.71,1.71h-93.97c-.95,0-1.71.77-1.71,1.71v46.33c0,.95.77,1.71,1.71,1.71h82.21c.95,0,1.71.77,1.71,1.71v30.04c0,.95-.77,1.71-1.71,1.71h-82.21c-.95,0-1.71.77-1.71,1.71v50.55c0,.95.77,1.71,1.71,1.71h93.97c.95,0,1.71.77,1.71,1.71v30.65c0,.95-.77,1.71-1.71,1.71h-129.26c-.95,0-1.71-.77-1.71-1.71V3.83c0-.95.77-1.71,1.71-1.71Z"/>
      <path class="cls-1" d="m1244.11,143.38v-2.14c0-.92.77-1.66,1.71-1.66h30.95c.95,0,1.71.74,1.71,1.66v3.9c0,25.46,10.55,32.19,35.89,32.19s33.47-6.73,33.47-24.87c0-20.78-10.25-24.29-45.23-37.16-37.39-13.75-57.9-25.75-57.9-60.86S1265.22,0,1312.26,0h2.41c46.74,0,67.85,20.48,67.85,62.33v1.85c0,.92-.77,1.66-1.71,1.66h-30.65c-.95,0-1.71-.74-1.71-1.66v-3.9c0-23.12-10.25-30.43-35.28-30.43s-33.17,7.02-33.17,23.12c0,19.31,13.57,23.12,45.84,34.24,38.6,13.75,57.6,25.16,57.6,62.91s-19,57.06-67.25,57.06h-4.22c-47.95,0-67.85-19.9-67.85-63.79Z"/>
      <path class="cls-1" d="m1424.44,143.38v-2.14c0-.92.77-1.66,1.71-1.66h30.95c.95,0,1.71.74,1.71,1.66v3.9c0,25.46,10.55,32.19,35.89,32.19s33.47-6.73,33.47-24.87c0-20.78-10.25-24.29-45.23-37.16-37.39-13.75-57.9-25.75-57.9-60.86S1445.55,0,1492.59,0h2.41c46.74,0,67.85,20.48,67.85,62.33v1.85c0,.92-.77,1.66-1.71,1.66h-30.65c-.95,0-1.71-.74-1.71-1.66v-3.9c0-23.12-10.25-30.43-35.28-30.43s-33.17,7.02-33.17,23.12c0,19.31,13.57,23.12,45.84,34.24,38.6,13.75,57.6,25.16,57.6,62.91s-19,57.06-67.25,57.06h-4.22c-47.95,0-67.85-19.9-67.85-63.79Z"/>
      <path class="cls-1" d="m815.69,207.17c-.54-.09-1.02-.63-1.3-1.11l-55.31-104.08c-.32-.56-.33-1.25-.02-1.82L815.25,3.06c.27-.5.76-.85,1.31-.95h35.15c1.33.12,2.09,1.59,1.43,2.76l-53.34,95.29c-.32.57-.32,1.27,0,1.84l52.41,102.4c.66,1.16-.07,2.61-1.38,2.77h-35.15Z"/>
      <path class="cls-1" d="m745.87,85.34V3.83c0-.95-.77-1.71-1.71-1.71h-32.76c-.95,0-1.71.77-1.71,1.71v201.63c0,.95.77,1.71,1.71,1.71h32.76c.95,0,1.71-.77,1.71-1.71v-120.12Z"/>
    </g>
  </g>
</svg>